<svg width="100" height="100" viewBox="0 0 100 100" fill="none" xmlns="http://www.w3.org/2000/svg">
<g clip-path="url(#clip0_6_7)">
<path d="M89.721 29.9218C89.7847 31.0155 89.7847 32.1094 89.7847 33.2031C89.7847 66.5623 69.1627 105 31.4722 105C19.8604 105 9.07367 100.859 0 93.672C1.64981 93.9063 3.23595 93.9843 4.94923 93.9843C14.5303 93.9843 23.3503 90 30.3935 83.2033C21.3833 82.9687 13.8325 75.7033 11.2309 65.703C12.5 65.9373 13.769 66.0937 15.1016 66.0937C16.9417 66.0937 18.7819 65.781 20.495 65.2343C11.1041 62.8903 4.06077 52.7343 4.06077 40.4687V40.1563C6.7891 42.0313 9.96197 43.2033 13.3247 43.3593C7.80433 38.828 4.1877 31.0936 4.1877 22.3436C4.1877 17.6562 5.20277 13.3593 6.97953 9.60927C17.0684 24.9217 32.2335 34.9216 49.2383 36.0155C48.9213 34.1405 48.731 32.1876 48.731 30.2344C48.731 16.328 57.868 5 69.226 5C75.127 5 80.4567 8.04687 84.2007 12.9687C88.8323 11.875 93.274 9.76557 97.2083 6.87501C95.685 12.7345 92.4493 17.6564 88.198 20.7812C92.3223 20.2346 96.32 18.828 100 16.8751C97.2087 21.8749 93.7187 26.3278 89.721 29.9218Z" fill="black"/>
<path d="M89.721 29.9218C89.7847 31.0155 89.7847 32.1094 89.7847 33.2031C89.7847 66.5623 69.1627 105 31.4722 105C19.8604 105 9.07367 100.859 0 93.672C1.64981 93.9063 3.23595 93.9843 4.94923 93.9843C14.5303 93.9843 23.3503 90 30.3935 83.2033C21.3833 82.9687 13.8325 75.7033 11.2309 65.703C12.5 65.9373 13.769 66.0937 15.1016 66.0937C16.9417 66.0937 18.7819 65.781 20.495 65.2343C11.1041 62.8903 4.06077 52.7343 4.06077 40.4687V40.1563C6.7891 42.0313 9.96197 43.2033 13.3247 43.3593C7.80433 38.828 4.1877 31.0936 4.1877 22.3436C4.1877 17.6562 5.20277 13.3593 6.97953 9.60927C17.0684 24.9217 32.2335 34.9216 49.2383 36.0155C48.9213 34.1405 48.731 32.1876 48.731 30.2344C48.731 16.328 57.868 5 69.226 5C75.127 5 80.4567 8.04687 84.2007 12.9687C88.8323 11.875 93.274 9.76557 97.2083 6.87501C95.685 12.7345 92.4493 17.6564 88.198 20.7812C92.3223 20.2346 96.32 18.828 100 16.8751C97.2087 21.8749 93.7187 26.3278 89.721 29.9218Z" stroke="black"/>
</g>
<defs>
<clipPath id="clip0_6_7">
<rect width="100" height="100" fill="white"/>
</clipPath>
</defs>
</svg>
